<?xml version="1.0" encoding="utf-8"?>
<svg id="master-artboard" viewBox="0 0 2800 1555" version="1.1" xmlns="http://www.w3.org/2000/svg" x="0px" y="0px" enable-background="new 0 0 2800 1555" width="2800px" height="1555px">




























<path fill="#2D3130" d="M771.1,195.1c1.1,0.8,2.4,0.7,3.7,0.8c16.4,1,32.1,5.1,47.4,11c1.2,0.5,2.3,1,3.4,1.7&#10;&#9;c1.1,0.6,1.4,1.9,0.9,2.9c-0.4,1-1.7,1.7-2.8,1.4c-1.1-0.3-2.1-0.7-3.1-1.1c-13.6-5.4-27.6-9-42.2-10.6c-12.9-1.4-25.8-1.3-38.7,0.4&#10;&#9;c-28.9,3.8-54.7,14.7-77.8,32.5c-4.4,3.4-8.6,7.1-12.7,11c-0.9,0.9-1.8,1.8-2.9,2.5c-0.9,0.7-2.3,0.5-3.1-0.3&#10;&#9;c-0.8-0.8-1-2.1-0.3-3.1c0.6-0.8,1.2-1.5,1.9-2.1c22.8-21.9,49.5-36.4,80.5-43.1c7-1.5,14.1-2.8,21.3-3c1.1,0,2.3,0,3.2-0.8&#10;&#9;C757,195.1,764.1,195.1,771.1,195.1z" transform="matrix(1, 0, 0, 1, 0, -194)"/>



<path fill="#2D3130" d="M872.9,361.1c0.1,61.3-49.5,112.3-112.3,112.3c-61.2,0-112-49.1-112.1-112c-0.2-62.7,50.3-112.5,112.1-112.5&#10;&#9;C823.6,248.9,873,300,872.9,361.1z" transform="matrix(1, 0, 0, 1, 0, -194)"/>
<path fill="#F0AAA7" d="M761.1,253.9c-60.7,0.3-107.3,48.8-107.6,106.8c-0.3,58.1,46,107.3,106.6,107.7&#10;&#9;c59.7,0.4,107.4-47.4,107.8-106.4C868.3,303.2,821.6,254.6,761.1,253.9z" transform="matrix(1, 0, 0, 1, 0, -194)"/>



<path fill="#F6BDBE" d="M1883.3,633.6c0,1.1,0.1,2.2,0,3.3c-0.1,1.2-1.7,2.3-2.9,1.9c-1.3-0.5-2.5-1.3-3.8-2&#10;&#9;c-5.8-2.9-12.8-1.8-17.2,2.9c-3,3.2-4.3,7.1-3.9,11.4c0.1,1.3,0.3,2.5,0.3,3.8c-0.1,1-0.8,1.7-1.9,1.8c-1,0.1-2-0.1-2.4-1.1&#10;&#9;c-0.5-1.3-1-2.7-1.1-4.1c-1.1-14.6,12-23.5,23.3-21.1c1.2,0.3,2.7,1,3.7,0.6c1.4-0.6,0.9-2.6,1.2-3.9c2.9-15.7,12-25.8,27.4-30.1&#10;&#9;c7.9-2.2,15.8-1.4,23.5,1.8c1,0.4,2,1,3,1.4c1.8,0.8,1.8,0.8,2.3-0.9c0.3-1.2,0.5-2.5,0.9-3.7c6.7-23.9,22.2-39.1,46.4-44&#10;&#9;c32.4-6.6,62.2,14.5,69.2,44.7c0.9,3.9,1.5,7.8,1.5,11.9c0,0.8,0,1.6-0.2,2.4c-0.2,1-1.5,1.9-2.6,1.7c-1-0.2-1.9-0.7-2-1.7&#10;&#9;c-0.2-1.3-0.1-2.6-0.3-3.8c-2.4-23.3-14.2-39.9-36.3-48c-31.6-11.6-65.8,8.5-71.8,42.2c-0.3,1.7-0.3,3.5-0.6,5.2&#10;&#9;c-0.4,2.1-2.2,2.8-4,1.8c-1.1-0.6-2.1-1.5-3.2-2.1c-20.1-12.5-45.6,0.3-48.3,23c-0.2,1.6-0.3,3.2-0.5,4.8&#10;&#9;C1883.1,633.6,1883.2,633.6,1883.3,633.6z" transform="matrix(1, 0, 0, 1, 0, -194)"/>
<path fill="#F6BDBE" d="M367,519.1c0,1.1,0.1,2.2,0,3.4c-0.1,1.8-1.7,2.8-3.4,2c-1-0.5-1.9-1.2-2.9-1.7c-8.9-4.7-19.6,0.6-21.4,10.5&#10;&#9;c-0.3,1.8-0.2,3.5,0.1,5.2c0.4,2.7-0.2,3.9-1.9,4.1c-1.6,0.1-2.7-0.8-3.1-3c-2.3-12.3,5.8-20.8,14.1-23c3.8-1,7.6-0.7,11.4,0.3&#10;&#9;c1.6,0.4,1.9,0.2,2.1-1.6c0.6-6.9,2.9-13.1,7-18.6c10.3-14,28.7-18.8,44.6-11.8c1.2,0.5,2.3,1.1,3.5,1.6c0.5,0.2,1,0,1.1-0.5&#10;&#9;c0.3-0.9,0.4-1.9,0.6-2.8c5.3-21.3,18-36.2,38.7-43.6c34.3-12.2,71.6,9.7,78,45.5c0.5,2.7,0.7,5.4,0.9,8.1c0.1,0.9,0.1,1.9-0.1,2.9&#10;&#9;c-0.2,1.1-1.3,2-2.3,2.1c-1.1,0.1-2.2-0.8-2.4-1.9c-0.2-1.3-0.3-2.5-0.4-3.8c-1-22.4-17.6-45.7-45.1-50.3&#10;&#9;c-31.4-5.2-55.5,15.5-61.8,39.6c-0.8,3.2-1.2,6.6-1.8,9.9c-0.5,2.5-2,3.3-4.1,2c-0.8-0.5-1.6-1.1-2.4-1.6&#10;&#9;c-10.7-6.7-21.7-7.4-32.8-1.4C372.5,496.8,367.3,506.6,367,519.1z" transform="matrix(1, 0, 0, 1, 0, -194)"/>
<path fill="#F6BDBE" d="M2123.1,483.2c30.7,0,56.7,21,63.2,50.6c0.4,1.8,0.1,3.8,1.5,5.3c1.8-0.4,2.8-2,4.2-3&#10;&#9;c19.1-14,47.3-4.4,52.3,20.7c0.4,2,0.3,4.1,0.3,6.2c0,1.2-1,2.1-2.1,2.2c-1.3,0.1-2.5-0.8-2.7-2.2c-0.1-0.8-0.1-1.6-0.2-2.4&#10;&#9;c-1.1-11.8-9-21.5-20.3-24.8c-11.3-3.3-23.2,0.7-30.3,10.2c-0.8,1-1.5,2.1-2.3,3.1c-0.5,0.6-1.3,0.9-2.2,0.7c-1-0.2-1.7-0.9-1.9-1.9&#10;&#9;c-0.2-1.6-0.3-3.2-0.4-4.8c-1.4-24.4-19.7-49.1-49-54c-32.9-5.5-60.6,16.1-67.4,44.2c-0.9,3.9-1.5,7.8-1.7,11.8&#10;&#9;c0,0.6-0.1,1.3-0.1,1.9c0.1,1.7-1.2,2.8-2.6,2.8c-1.4,0-2.3-1.2-2.3-3.1c0-2.1,0-4.2,0.3-6.2c3.3-28.2,23.7-50.5,51.5-56.1&#10;&#9;C2115.2,483.6,2119.3,483,2123.1,483.2z" transform="matrix(1, 0, 0, 1, 0, -194)"/>
<path fill="#F6BDBE" d="M634.6,586.1c23.9,0.5,43,10.8,56,32c3.9,6.3,6.4,13.2,7.7,20.6c0.2,0.9,0.4,1.9,0.7,2.8&#10;&#9;c0.2,0.8,0.8,0.9,1.4,0.4c1-0.8,1.9-1.7,3-2.4c10.5-7.5,21.8-9,33.6-3.8c11.8,5.2,18.1,14.8,19.6,27.5c0.1,1.1,0,2.2-0.1,3.3&#10;&#9;c-0.2,1.1-1.5,1.9-2.5,1.8c-1.1-0.1-1.8-0.7-2-1.8c-0.3-1.4-0.4-2.8-0.6-4.3c-1.6-11.4-9.7-20.7-20.5-23.5&#10;&#9;c-11.4-2.9-22.8,1-29.8,10.4c-0.8,1-1.5,2.1-2.3,3.1c-0.5,0.6-1.3,0.8-2.2,0.7c-1-0.2-1.7-0.9-1.9-1.9c-0.2-0.9-0.1-1.9-0.2-2.9&#10;&#9;c-1.4-28.7-22.6-52.5-51.2-56.2c-33.9-4.4-60.5,19-66,47c-0.6,3.2-1,6.3-1.1,9.5c0,0.9-0.1,1.9-0.3,2.8c-0.3,1.1-1.5,1.8-2.6,1.7&#10;&#9;c-1.1-0.2-1.8-0.9-1.9-1.9c-0.2-1.1-0.2-2.2-0.2-3.3c1.1-29.3,22.7-55.6,54.3-60.7C628.2,586.5,631.1,586.4,634.6,586.1z" transform="matrix(1, 0, 0, 1, 0, -194)"/>
<path fill="#2D3130" d="M760.3,527.3c-44.1-0.7-82.4-15.9-114.6-46.2c-1-1-2-2-2.9-3.2c-0.6-0.8-0.4-1.8,0.4-2.6&#10;&#9;c0.7-0.8,1.7-1.1,2.6-0.6c1,0.5,1.8,1.3,2.6,2c5.2,5,10.6,9.7,16.5,14c20.4,15,43.1,24.8,68.1,29.2c50.2,8.8,101.7-6.9,138.5-41.9&#10;&#9;c1-1,2.1-2,3.2-2.9c0.9-0.8,2.3-0.7,3.1,0c1,0.8,1.2,2.3,0.3,3.5c-0.7,0.9-1.5,1.6-2.3,2.4c-24.1,23-52.5,37.7-85.4,43.7&#10;&#9;C780.5,526.3,770.5,527.3,760.3,527.3z" transform="matrix(1, 0, 0, 1, 0, -194)"/>
<path fill="#2D3130" d="M761.4,500.9c-17.8-0.1-34.5-3-50.7-9.2c-1.6-0.6-3.2-1.3-4.8-2.2c-1-0.6-1.3-1.9-0.9-2.9&#10;&#9;c0.5-1,1.7-1.7,2.8-1.4c1.2,0.4,2.4,0.9,3.6,1.4c19.7,7.7,40.1,10.7,61.1,8.8c30.8-2.8,57.6-14.9,80.3-36&#10;&#9;c13-12.1,23.2-26.4,30.6-42.6c0.6-1.3,1.2-2.6,2-3.8c0.6-0.9,1.6-1.1,2.6-0.7c1,0.4,1.5,1.2,1.5,2.3c0,1.5-0.8,2.8-1.3,4.1&#10;&#9;c-5.3,11.7-12,22.6-20.4,32.4c-21,24.7-47.5,40.4-79.2,47.2C779.5,500.1,770.2,500.8,761.4,500.9z" transform="matrix(1, 0, 0, 1, 0, -194)"/>
<path fill="#F6BDBE" d="M339.9,584.1c0.2,2.5-0.5,5.1-0.9,7.8c0,0.3-0.2,0.6-0.3,0.9c-0.7,2.1-1.9,2.9-3.4,2.4&#10;&#9;c-1.3-0.4-1.9-1.6-1.5-3.5c0.3-1.6,0.7-3.1,0.8-4.7c0.9-8.9-1.7-16.8-7.9-23.3c-7-7.3-15.5-10.4-25.6-8.9c-4.1,0.6-5.2,1-6.6-4.2&#10;&#9;c-4.6-17-15.5-28-32.7-32.2c-23.3-5.6-47.1,9.3-52.3,32.6c-0.3,1.4-0.6,2.8-1,4.2c-0.3,1.2-1.5,1.8-2.6,1.7&#10;&#9;c-1.1-0.2-2.1-1.1-2.1-2.3c0-0.8,0-1.6,0.2-2.4c4.6-24.4,24.2-37.3,41.4-39.7c20.5-2.9,44.2,8.4,52.6,32c0.6,1.6,0.4,3.9,2.1,4.6&#10;&#9;c1.3,0.6,3.1,0.2,4.7,0.2C324.1,549.2,339.8,564.7,339.9,584.1z" transform="matrix(1, 0, 0, 1, 0, -194)"/>
<path fill="#F6BDBE" d="M2351.4,725.1c0.8-18.7-12.1-39.7-36-43.9c-19.7-3.5-35.9,5.9-44.7,19.7c-0.8,1.2-1.4,2.5-2.2,3.7&#10;&#9;c-0.8,1.2-2,1.6-3.3,1c-1-0.4-2-1-3-1.5c-18.5-8.2-39.5,4.3-41.4,24.4c-0.1,0.6,0,1.3-0.1,1.9c-0.2,1.9-1.1,3-2.5,3&#10;&#9;c-1.6,0-2.6-1.2-2.5-3.4c0.1-2.2,0.3-4.5,0.7-6.7c2.9-13,14.4-26.2,33.2-26.9c4-0.1,8,0.7,11.8,1.9c0.9,0.3,1.8,0.7,2.7,1&#10;&#9;c0.7,0.2,1.3,0.1,1.7-0.5c0.7-1,1.4-2.1,2.2-3.2c9.8-13.2,23-20.4,39.4-20.4c30.7,0,49.3,25.2,49,48.1c0,2.2-0.1,4.5-0.3,6.7&#10;&#9;c-0.1,0.8-0.3,1.6-0.7,2.2c-0.5,0.9-1.5,1.2-2.5,1c-0.8-0.2-1.4-0.8-1.6-1.6c-0.1-0.6-0.2-1.3-0.1-1.9&#10;&#9;C2351.2,728.3,2351.3,726.7,2351.4,725.1z" transform="matrix(1, 0, 0, 1, 0, -194)"/>
<path fill="#2D3130" d="M926.7,358.5c0,23.8-3.8,44.1-11.5,63.6c-0.5,1.3-1.1,2.7-1.8,3.9c-0.6,1.1-1.9,1.4-2.9,1&#10;&#9;c-1-0.5-1.7-1.6-1.4-2.8c0.2-0.9,0.6-1.8,0.9-2.7c5.2-13,8.7-26.4,10.5-40.3c1.4-11.1,1.7-22.3,0.7-33.5c-1.5-17.4-5.6-34-12.4-50&#10;&#9;c-7.6-17.8-18.2-33.7-31.5-47.8c-1-1-2-2.1-2.9-3.2c-0.7-0.9-0.5-2.2,0.4-3c0.9-0.8,2.1-0.9,3.1-0.2c1.1,0.9,2.1,1.9,3.1,3&#10;&#9;c21.1,22.4,35.2,48.5,41.9,78.5C925.5,337,926.8,349.1,926.7,358.5z" transform="matrix(1, 0, 0, 1, 0, -194)"/>

<path fill="#2D3130" d="M900.4,356c0,2.2,0.1,3.8,0,5.4c-0.1,1.3-1.5,2.3-2.7,2.1c-1.1-0.1-2-1-2.1-2.3c-0.2-2.1-0.2-4.1-0.3-6.2&#10;&#9;c-1.5-30.8-12.2-57.9-32.2-81.3c-19.3-22.6-43.6-37.1-72.5-43.9c-0.8-0.2-1.6-0.3-2.3-0.5c-1.8-0.6-2.6-1.8-2.1-3.2&#10;&#9;c0.4-1.3,1.5-2,3-1.7c1.3,0.2,2.5,0.4,3.8,0.7c55.2,13.2,93.5,56.7,104.2,105.4C899,339.1,899.9,347.8,900.4,356z" transform="matrix(1, 0, 0, 1, 0, -194)"/>

<path fill="#2D3130" d="M610.1,295c1.4,0.1,2.7,1.7,2.3,3c-0.3,1.2-0.9,2.4-1.4,3.6c-5.6,14-9.2,28.6-10.6,43.6&#10;&#9;c-2.3,25.4,0.8,50,10,73.8c0.6,1.6,1.3,3.2,1.9,4.9c0.4,1.3-0.3,2.6-1.6,3.1c-1,0.4-2.3,0-2.9-1.1c-0.7-1.4-1.4-2.9-1.9-4.4&#10;&#9;c-6-15.4-9.6-31.4-10.8-47.9c-1.9-25.3,1.8-49.7,10.9-73.3c0.6-1.5,1.3-2.9,2-4.3C608.5,295.4,609.3,295.1,610.1,295z" transform="matrix(1, 0, 0, 1, 0, -194)"/>




<path fill="#2D3130" d="M732.8,224.3c1.2,0,2.3,0.8,2.6,1.9c0.3,1.1-0.2,2.3-1.4,2.7c-0.9,0.4-1.8,0.6-2.8,0.8&#10;&#9;c-33.5,7.9-60.2,25.8-80.4,53.6c-0.6,0.8-1.1,1.6-1.7,2.3c-1.2,1.4-2.6,1.7-3.7,0.7c-1.1-0.9-1.2-2-0.4-3.4c0.5-0.8,1-1.6,1.6-2.4&#10;&#9;c20.6-28.5,48-47,82.1-55.4C730,224.7,731.5,224.5,732.8,224.3z" transform="matrix(1, 0, 0, 1, 0, -194)"/>



<path fill="#2D3130" d="M634.1,412.1c0.9,0,1.6,0.3,2.1,1c0.6,0.9,1.1,2,1.5,3c6.4,14.1,14.8,26.8,25.5,37.9&#10;&#9;c0.9,0.9,1.7,1.9,2.5,2.9c0.7,0.9,0.5,1.8-0.1,2.7c-0.7,1-2,1.3-3,0.8c-0.8-0.5-1.5-1.1-2.2-1.8c-11.6-11.9-20.7-25.4-27.5-40.6&#10;&#9;c-0.4-1-0.8-2.1-1-3.2C631.7,413.5,632.8,412.2,634.1,412.1z" transform="matrix(1, 0, 0, 1, 0, -194)"/>


<path fill="#2D3130" d="M628.6,334.1c-0.6,4.1-1.1,8.2-1.7,12.3c-0.6,4.1-0.7,8.2-0.8,12.4c0,1,0,1.9-0.2,2.9&#10;&#9;c-0.2,1-1.4,1.9-2.5,1.9c-1.1,0-2.1-0.9-2.2-2.1c-0.1-1.1-0.1-2.2-0.1-3.3c0.1-7.7,0.9-15.2,2.3-22.8c0.1-0.8,0.3-1.6,0.6-2.3&#10;&#9;c0.5-1.5,1.5-2.1,2.9-1.8C628.1,331.6,628.8,332.7,628.6,334.1z" transform="matrix(1, 0, 0, 1, 0, -194)"/>









</svg>