<?xml version="1.0" encoding="utf-8"?>
<svg id="master-artboard" viewBox="0 0 2800 1555" version="1.1" xmlns="http://www.w3.org/2000/svg" x="0px" y="0px" enable-background="new 0 0 2800 1555" width="2800px" height="1555px">
<path fill="#BCB5AF" d="M2524.5,796.3l-73.1-73.3c-11.2-8.4-26.7-8.2-37.7,0.4l-231.3,262.5c-11.1,8.7-26.7,8.8-37.9,0.2&#10;&#9;l-143.5-173.6c-8.8-6.7-21-6.3-29.3,0.9l-87.8,113.8l150.5,144.7c77.6,76,322.3,188.5,392,105.3l109.2-130.4&#10;&#9;C2597.1,973,2592.4,864.4,2524.5,796.3z"/>
<path fill="#D8CBC0" d="M2348.5,1270.6c56.8,30.1,127.3,17.4,168.8-31.7c34.7-41,49.1-96.3,15.9-134.7l-97.3-112.7&#10;&#9;c-13.8-16.1-38.5-16.5-52.9-0.9l-131.2,143c-9.8,10.7-26.6,10.9-36.7,0.6l-77.1-79c-9.2-9.4-24.1-10.2-34.2-1.8l-51.9,59.9&#10;&#9;L2348.5,1270.6z"/>
<path fill="#BCB5AF" d="M604.7,883l-70-61.1c-0.4-0.3-0.8-0.7-1.2-1c-6.4-4.4-14.7-4.7-21.4-1c-1.4,0.8-2.7,1.9-3.8,3.1L360.4,991&#10;&#9;c-1.1,1.2-2.4,2.3-3.8,3.1c-6,3.4-13.3,3.4-19.3,0.2c-1.6-0.9-3.1-2.1-4.3-3.6l-89.9-108.7c-3.1-3.7-7.8-5.9-12.6-5.5&#10;&#9;c-0.3,0-0.7,0.1-1,0.1c-3.7,0.6-6.9,2.8-9.1,5.7l-43.5,57.7c-4.2,5.6-4.1,13.3,0.3,18.7l0,0c102.8,126.3,252.5,205.6,414.8,219.6&#10;&#9;l67.5,5.8c10.3,0.9,18.4-8.6,16-18.6l-66.1-274.7C608.8,887.8,607.1,885.1,604.7,883z"/>
<path fill="#D8CBC0" d="M1818.8,1291.7c233.2,0,357.1-76.1,271-160.3L1841,886.9c-15.8-15.4-43.7-15.8-60-0.8l-41.2,38&#10;&#9;c-16.5,15.3-45,14.6-60.6-1.4l-532.5-545.3c-12.2-12.5-34.8-12.4-46.8,0.3l-630.8,666.1c-10,10.6-28.8,10.7-39,0.3l-13.6-13.9&#10;&#9;c-10.3-10.5-29.4-10.3-39.3,0.6l-35,38.4c-77,84.5-18.6,220.3,95.7,222.5H1818.8z"/>
<path fill="#2D3130" d="M143.3,1282.7c1.7,0,2.4-1.4,3.4-2.4c5.1-5.5,10.1-11.1,15.2-16.7c70.6-77.5,141.1-155,211.7-232.4&#10;&#9;c1.4-1.5,2.8-3.1,4.2-4.6c11.2-11.4,30.5-11.8,42.1-0.7c4.7,4.6,9.2,9.4,13.8,14c7.3,7.2,16,8.9,25.7,6.1c3.8-1.1,7-3,9.7-5.9&#10;&#9;c3-3.1,6-6.2,8.9-9.4c42.2-44.6,84.5-89.2,126.7-133.8c0.8-0.8,1.6-1.6,2.3-2.5c0.9-1,0.9-1.4-0.2-2.3c-6.5-5.7-13-11.4-19.5-17.1&#10;&#9;c-16.9-14.7-33.8-29.4-50.7-44.2c-1-0.8-1.9-1.7-2.9-2.5c-7.4-5.7-17.1-4.8-23.3,2.1c-20.3,23-40.6,46.1-60.9,69.1&#10;&#9;c-28.5,32.3-57,64.5-85.3,96.9c-5.7,6.6-18.2,10.3-28.4,4c-1.8-1.1-3.1-2.7-4.4-4.3c-13.2-16-26.5-32.1-39.8-48.1&#10;&#9;c-16.4-19.8-32.9-39.7-49.2-59.6c-2.8-3.4-6.2-4.9-10.5-4.6c-3.3,0.2-6.1,1.6-8.2,4.3c-4.9,6.5-9.8,13-14.7,19.5&#10;&#9;c-11.4,15.1-22.7,30.1-34.1,45.2c-0.9,1.1-1.8,2.3-2.8,3.2c-0.8,0.8-2.2,0.6-3-0.2c-0.8-0.7-1-1.7-0.5-2.6c0.4-0.9,1-1.6,1.6-2.4&#10;&#9;c16.5-21.8,32.9-43.7,49.4-65.5c5.2-6.9,14.3-8.7,21.9-4.7c2,1.1,3.5,2.8,4.9,4.5c10.8,13.1,21.6,26.1,32.4,39.2&#10;&#9;c18.8,22.7,37.5,45.4,56.3,68.1c4.4,6.9,15,7.4,20.7,4.3c2-1.1,3.6-2.6,5.1-4.3c9.9-11.3,19.9-22.6,29.8-33.9&#10;&#9;c38.6-43.8,77.2-87.6,115.8-131.4c6.5-9,22.1-10.4,31.4-2.2c9.3,8.3,18.8,16.4,28.2,24.6c13.6,11.9,27.2,23.8,40.9,35.6&#10;&#9;c1.1,0.9,2.2,1.9,3.3,2.8c1.4,1.1,1.7,1.1,2.8,0c1.3-1.2,2.5-2.5,3.7-3.8c71.6-75.6,143.2-151.2,214.8-226.8&#10;&#9;c86.6-91.4,173.1-182.8,259.7-274.2c2.8-2.9,5.5-5.8,8.3-8.7c7.4-7.9,16.5-11.2,27.1-10.9c9.7,0.2,18,3.8,24.8,10.8&#10;&#9;c15.7,16.2,31.5,32.3,47.3,48.4c20.8,21.3,41.6,42.6,62.4,63.9c21.1,21.6,42.2,43.3,63.4,64.9c20.6,21.1,41.1,42.1,61.7,63.2&#10;&#9;c20.9,21.4,41.8,42.8,62.7,64.2c1.8,1.8,3.7,3.6,5.3,5.5c1.6,1.9,3.5,2.5,5.9,2.5c9.6-0.2,19.2-0.3,28.8-0.3&#10;&#9;c21.1,0,42.2,0.5,63.3,1.5c2.6,0.1,5.1,0.2,7.7,0.2c1.2,0,1.8-0.6,1.9-1.7c0.1-1,0.1-1.9,0.1-2.9c0.2-14.4,0.5-28.8,0.7-43.2&#10;&#9;c0.5-25.6,1-51.2,1.5-76.8c0.4-23.4,0.8-46.7,1.2-70.1c0.1-5.3,1-10.5,2.6-15.6c0.4-1.2,0.8-2.4,1.1-3.7c0.2-0.7-0.3-1.3-1-1.2&#10;&#9;c-2.4,0.4-4.7,0.9-7.1,1.3c-7.8,1.1-15.7,1.2-23.3-0.8c-12.4-3.2-21.7-10.6-27.8-21.9c-4.8-8.9-7.9-18.5-9.6-28.5&#10;&#9;c-1-6.3-1.4-12.7-0.2-19.1c0.2-1.3,0.4-2.5,1.1-3.7c0.7-1.2,2.2-1.6,3.3-0.8c1.1,0.9,2.1,1.9,3.2,2.9c18.9,18.9,37.8,37.8,56.7,56.7&#10;&#9;c1,1,2,2,3.1,3c0.2,0.2,0.6,0.2,0.9,0.1c0.2-0.1,0.4-0.5,0.5-0.7c0.1-0.3,0-0.6,0-1c-1-15.5-2-31-3-46.4c-0.3-4.3-0.1-8.6-1.2-12.9&#10;&#9;c-0.5-1.9,0.1-4.1,0-6.2c-0.8-13.2-1.6-26.5-3-39.7c-0.2-1.6-0.5-3.2-0.8-4.7c-1.6-7.6-6.1-12.9-13.1-16.1c-5-2.3-10.4-3.3-15.8-3.7&#10;&#9;c-17.1-1.3-34.2-1.5-51.3-0.8c-14.9,0.5-29.7,1.7-44.3,4.6c-7.9,1.5-15.6,3.6-23,6.6c-11.4,4.6-19.4,12.6-24.7,23.6&#10;&#9;c-3.5,7.3-5.5,15-6.3,23c-1.2,11.5-0.6,23,2.7,34.2c1.4,4.6,3.1,9.1,5.7,13.2c1.5,2.5,3.3,4.7,5.6,6.5c5.6,4.5,12.5,4.4,17.9-0.4&#10;&#9;c2.5-2.1,4.1-4.8,5.5-7.8c2.4-5.1,3.8-10.5,4.6-16.1c1.3-8.4,1.8-16.8,1.4-25.3c-0.1-1.1-0.1-2.2,0-3.4c0.1-1.5,0.9-2.4,2.5-2.4&#10;&#9;c5.6-0.1,11.2,0,16.8,0c1.5,0,2.4,0.9,2.7,2.3c0.4,1.9,0.8,3.8,1.1,5.7c2.1,14.2,2.5,28.3-0.5,42.5c-1.2,5.7-3,11.1-5.7,16.2&#10;&#9;c-5.9,11.4-14.9,19.1-27.1,22.9c-11.9,3.7-23.9,3.9-36,0.9c-5.5-1.4-10.5-3.9-15.1-7c-1.3-0.9-2.7-1.7-4-2.6&#10;&#9;c-0.5-0.3-1.1-0.7-1.5-1.1c-5.5-6.5-10.9-12.9-14.7-20.6c-4.5-9.3-7.7-18.9-10-29c-2.5-11.1-4-22.3-5-33.7&#10;&#9;c-1.1-14.2-1.5-28.4-1.4-42.7c0-7.7,0.2-15.4,0.6-23c0.4-7.9,2-15.5,4.7-22.9c3.4-9.2,8.7-17,16-23.6c10.9-9.7,23.7-15.5,37.9-18.5&#10;&#9;c3.3-0.7,6.6-1.2,9.9-1.7c3.3-0.5,6.5-1,9.8-1.2c12.3-0.6,24.6-1.9,36.9-2.5c13.9-0.8,27.8-1.3,41.7-1.4c15.7-0.1,31.4,0,47,1.1&#10;&#9;c17.6,1.2,35.1,3,52.1,7.5c4.2,1.1,8.3,2.5,12.3,4c13.9,5.4,23.5,15.1,29.5,28.6c3.2,7.2,5.1,14.8,6.2,22.6c0,0.3,0,0.7,0.1,1&#10;&#9;c1.7,5,0.8,10.1,0.8,15.1c0,35.2,0,70.4,0,105.6c0,5-0.3,4.7,4.7,4.7c5,0,9.9,0,14.9,0c1.9,0,2.3-0.4,2.3-2.2c0.1-1.1,0-2.2,0-3.4&#10;&#9;c0-32.8,0-65.6,0-98.4c0-5.1,0.2-10.2-0.5-15.3c-0.1-0.5-0.2-1,0-1.4c1.7-4.5,1.6-9.4,2.8-14.1c1.6-6.2,3.5-12.3,6.5-18&#10;&#9;c5.8-11,14.3-19.1,25.8-24c8.4-3.6,17.2-5.9,26.2-7.5c15.1-2.8,30.4-4.2,45.7-5c19.3-1.1,38.7-1,58.1-0.5&#10;&#9;c16.9,0.5,33.9,1.5,50.8,2.7c5.1,0.4,10.1,1.3,15.3,0.9c1.9-0.2,3.6,1,5.6,1.2c6,0.7,12,1.8,17.8,3.6c10,3.1,19.3,7.7,27.5,14.3&#10;&#9;c10.9,8.8,17.7,20,21,33.5c1.8,7.2,2.7,14.5,2.8,21.9c0.1,13.3,0.3,26.6-0.1,39.8c-0.5,17-1.9,33.9-5.5,50.5&#10;&#9;c-2.2,10-5.1,19.8-9.5,29.1c-3.4,7.1-7.4,13.8-13,19.4c-1.6,1.5-2.4,3.5-4.5,4.8c-6.1,3.9-12.1,7.8-19.2,9.5&#10;&#9;c-13.3,3.2-26.4,2.7-39.1-2.2c-11.6-4.5-19.7-12.9-24.8-24.1c-3.1-6.9-4.9-14.2-5.8-21.7c-1.6-12.2-0.9-24.3,1.2-36.3&#10;&#9;c1.1-6.5,0.7-6.3,7.2-6.2c4,0,8-0.1,12,0c3,0.1,3.5,0.7,3.5,3.8c0,1.9-0.1,3.8-0.1,5.8c-0.1,9.6,0.6,19.2,3,28.6&#10;&#9;c0.9,3.7,2.2,7.4,4,10.8c1.5,2.7,3.3,5.1,5.8,7c5.2,3.8,11.3,3.8,16.4-0.1c2.8-2.2,4.9-5,6.7-8.1c2.9-5,4.7-10.5,6-16.1&#10;&#9;c3.4-15,3-29.8-1.4-44.6c-1.7-5.5-4.1-10.8-7.3-15.6c-4.3-6.4-9.8-11.3-16.7-14.8c-6.9-3.5-14.3-5.7-21.8-7.3&#10;&#9;c-12.4-2.7-24.9-4.1-37.5-5c-14.7-1-29.4-1.1-44.1-0.8c-8.5,0.2-16.9,0.5-25.3,1.8c-3.2,0.5-6.2,1.4-9.2,2.6&#10;&#9;c-7.9,3.3-12.5,9.2-13.9,17.6c-0.8,4.9-1.3,9.8-1.7,14.8c-0.5,6.1-0.8,12.1-1.2,18.2c-0.2,3.2-0.8,6.4-0.7,9.6&#10;&#9;c0.2,5.1-0.7,10.1-1,15.2c-1,15.3-2,30.6-2.9,46c-0.1,1.9-0.2,3.8-0.2,5.8c0,0.3,0.2,0.6,0.4,0.7c0.2,0.1,0.7,0.1,0.9-0.1&#10;&#9;c1.1-1,2.1-1.9,3.1-3c18.8-18.8,37.6-37.6,56.3-56.3c1-1,2-2.1,3.1-3c1.4-1.2,3.3-0.7,3.9,1c0.8,2.4,1.2,5,1.3,7.5&#10;&#9;c0.3,6.4-0.2,12.8-1.6,19.1c-1.7,7.5-4.1,14.8-7.5,21.7c-6,12.5-15.6,20.9-29.2,24.4c-7.5,1.9-15.2,1.8-22.9,0.9&#10;&#9;c-1.4-0.2-2.8-0.4-4.3-0.6c-0.8-0.1-1.1,0.5-1,1.2c0.1,0.6,0.3,1.2,0.5,1.8c2.2,6.4,2.9,13.1,2.9,19.8c0,41.6,0,83.2,0,124.8&#10;&#9;c0,52.3,0,104.6,0,157c0,6.1,0.5,12.2,0.4,18.2c-0.2,13.2-2.3,26.1-7.3,38.4c-5.7,14.1-14.7,25.4-28.3,32.7&#10;&#9;c-0.3,0.2-0.5,0.3-0.8,0.5c-1.4,0.6-1.8,1.7-1.8,3.1c0,1,0,1.9,0,2.9c0,14.6,0,29.1,0,43.7c0,0.5,0.1,1,0,1.4&#10;&#9;c-0.5,2.7,1,4.1,3.1,5.2c4.5,2.5,9.3,4.3,14.4,5c9.4,1.3,18.5,0.1,27-4.5c3.3-1.8,6.1-4,8.9-6.5c13.2-12.2,26.4-24.3,39.5-36.4&#10;&#9;c5.4-5,11.6-8.6,18.7-10.3c17.5-4.2,33.3-1,46.5,11.9c29.8,29.2,59.7,58.4,89.5,87.6c29.7,29.1,59.4,58.2,89.1,87.3&#10;&#9;c11.1,10.9,22.2,21.7,33.3,32.5c0.6,0.6,1.1,1.1,1.8,1.6c0.6,0.5,1.2,0.4,1.7,0c0.9-0.7,1.7-1.5,2.5-2.3&#10;&#9;c12.8-12.3,25.6-24.6,38.3-37c3.8-3.7,8-6.3,13.2-7.5c10.6-2.4,19.6,0.5,27.2,8.1c6.2,6.3,12.3,12.6,18.4,18.9&#10;&#9;c19.1,19.6,38.3,39.1,57.2,58.8c9.7,10.1,25.4,9.7,34.4-0.4c14.9-16.5,30-32.8,45.1-49.2c28.2-30.8,56.5-61.5,84.7-92.3&#10;&#9;c5.4-6,11.9-10.3,19.7-12c14.7-3.2,27.2,0.7,37.4,11.8c5,5.4,9.6,11.1,14.4,16.7c55.3,64.5,110.6,129,165.8,193.5&#10;&#9;c15.3,17.9,30.6,35.7,45.9,53.6c0.6,0.7,1.3,1.4,1.8,2.2c1,1.5,0.9,3-0.2,3.9c-1,0.7-2.3,0.6-3.4-0.5c-0.7-0.7-1.3-1.4-1.9-2.1&#10;&#9;c-38.5-44.9-77-89.9-115.6-134.8c-36.5-42.6-73.1-85.3-109.6-127.9c-5.3-6.2-11.7-10.3-19.8-11.7c-11.2-2-20.8,1.3-29,9.1&#10;&#9;c-1.9,1.8-3.5,3.7-5.2,5.6c-41.7,45.5-83.5,91-125.2,136.5c-0.6,0.7-1.3,1.4-2,2.1c-11.1,11.5-28.6,11.8-40,0.5&#10;&#9;c-5.1-5.1-10.1-10.3-15.1-15.5c-20.5-21.1-41.1-42.1-61.6-63.2c-7.5-7.8-18.5-9.3-27.3-4.7c-1.9,1-3.5,2.2-5,3.6&#10;&#9;c-13.5,13-26.9,26-40.4,39c-0.2,0.2-0.5,0.4-0.7,0.7c-0.9,0.9-0.9,1.5,0,2.4c4,3.9,8,7.8,12,11.8c16.3,16,32.7,32,49.1,48&#10;&#9;c20.2,19.8,40.5,39.6,60.7,59.4c19.9,19.5,39.8,39,59.7,58.4c14.4,14.1,28.8,28.2,43.2,42.3c1.9,1.9,3.9,3.8,5.7,5.8&#10;&#9;c0.9,1,0.8,2.1,0.1,3.1c-0.8,1.1-2.2,1.3-3.4,0.4c-0.9-0.7-1.7-1.5-2.5-2.2c-29.4-28.8-58.7-57.5-88.1-86.3&#10;&#9;c-30.6-30-61.3-60-91.9-90c-37.2-36.4-74.3-72.7-111.5-109.1c-23.9-23.4-47.8-46.8-71.6-70.2c-28.2-27.6-56.6-55.1-84.7-83&#10;&#9;c-15.4-15.3-42.3-15.7-57.9-1.1c-13.2,12.4-26.6,24.5-39.8,36.8c-6.1,5.7-13.2,9.5-21.4,11.2c-10.5,2.2-20.7,1.4-30.5-2.9&#10;&#9;c-0.7-0.3-1.4-0.7-2.2-1c-1.8-0.8-2.3-0.5-2.4,1.4c0,1.6,0,3.2,0,4.8c0,81,0,161.9,0,242.9c0,1.6,0,3.2-0.1,4.8&#10;&#9;c-0.1,1.6-0.8,2.3-2.4,2.4c-1.1,0.1-2.2,0.1-3.4,0.1c-5.9,0-11.8,0-17.8,0c-0.6,0-1.3,0-1.9,0c-3.2-0.1-3.6-0.4-4.1-3.4&#10;&#9;c-0.3-1.6-0.6-3.1-0.8-4.7c-3.5-21.9-7-43.9-10.4-65.8c-3-19.3-6-38.5-9.1-57.8c-3.3-21.2-6.8-42.3-10.1-63.5&#10;&#9;c-2.6-16.3-5.2-32.5-7.7-48.8c-1-6.5-1.5-13-2.2-19.5c-1.3-12.1-2.7-24.2-4-36.2c0-0.3-0.3-0.5-0.4-0.8c-0.1,0.3-0.3,0.5-0.3,0.8&#10;&#9;c-0.1,2.6-0.2,5.1-0.2,7.7c0,54.2,0,108.5,0,162.7c0,41,0,81.9,0,122.9c0,6.7,0.1,6.7-6.5,6.6c-5.6,0-11.2,0-16.8,0&#10;&#9;c-1.1,0-2.2,0-3.4,0c-1.9-0.1-2.6-0.6-2.9-2.5c-1-5.3-1.9-10.7-2.8-16.1c-2.7-16.2-5.5-32.5-8.2-48.7c-2.8-16.4-5.5-32.8-8.3-49.2&#10;&#9;c-3-17.8-6.1-35.6-9.1-53.4c-2.7-16.2-5.5-32.5-8.2-48.7c-1.4-8-2.6-16.1-4.1-24.1c-0.8-4.3-0.8-8.6-1.2-12.9&#10;&#9;c-0.9-10-1.5-20.1-2.3-30.1c-0.6-7.3-1.2-14.7-1.8-22c-0.2-2.2-0.5-2.5-2.6-2.5c-12-0.3-24-0.6-36-0.9c-0.3,0-0.6,0-1,0&#10;&#9;c-1.1,0.1-1.5,0.5-1.3,1.5c0.2,0.8,0.4,1.6,0.6,2.3c4.1,12.3,6.8,25,7.9,38c1.7,21.1-1.1,41.5-11,60.5c-2.8,5.4-6.1,10.5-9.9,15.2&#10;&#9;c-7.4,9.1-15.7,17.3-25,24.4c-5.5,4.2-11.5,7.6-17.7,10.6c-2,1-4,1.9-6,3c-7,3.6-9.2,11.9-6.1,18.4c8.8,18.3,17.2,36.8,25.7,55.2&#10;&#9;c7.7,16.5,15.4,33.1,23,49.6c0.6,1.3,1.2,2.6,1.6,4c0.5,1.5-0.5,2.9-2,3.2c-0.9,0.1-1.9,0.1-2.9,0.1c-8.2,0-16.3-0.1-24.5,0.1&#10;&#9;c-3.1,0.1-5-0.9-6.5-3.6c-7.1-12.1-14.5-24.1-21.8-36.2c-15.3-25.3-30.6-50.7-45.9-76c-2.2-3.6-3.8-7.4-4.3-11.6&#10;&#9;c-0.5-3.7,0-7.3,0.9-10.9c0.6-2.4,1.9-4.4,3.4-6.3c4.3-5.2,8.3-10.6,12.7-15.6c3.9-4.5,6.2-9.6,7.5-15.3c1.2-5.3,1.9-10.7,1.5-16.2&#10;&#9;c-0.1-0.9-0.2-1.9-0.4-2.8c-0.1-0.3-0.4-0.6-0.6-0.7c-0.2-0.1-0.6,0.2-0.7,0.4c-0.6,1.1-1.1,2.3-1.6,3.5&#10;&#9;c-7.2,16.5-18.3,29.9-32.3,41.1c-7.7,6.1-16.4,9.9-26,11.8c-1.3,0.2-2.5,0.5-3.7,0.8c-5.2,1.4-8.1,4.9-8.7,10.2&#10;&#9;c-0.4,3,0.3,5.7,1.4,8.4c5.2,12.6,10.3,25.1,15.5,37.7c8.8,21.3,17.5,42.6,26.3,63.9c0.6,1.5,1.2,3,1.6,4.5c0.3,1.1-0.6,2.3-1.7,2.5&#10;&#9;c-0.9,0.1-1.9,0.2-2.9,0.2c-8.5,0-17-0.1-25.4,0.1c-3,0.1-4.6-1.1-6-3.6c-9.5-17.4-19.2-34.7-28.8-52&#10;&#9;c-10.7-19.3-21.4-38.6-32.2-57.8c-2.6-4.7-4.2-9.6-4-15.1c0.1-1.8,0.4-3.5,0.7-5.2c0.7-3.4,2.4-6.1,5.2-8.2&#10;&#9;c5.5-4.1,10.7-8.7,16.2-12.8c2.5-1.8,3.8-4.1,4.7-7c2.3-7.4,2.2-14.8,0.6-22.3c-1.1-5.5-2.8-10.8-5.5-15.8&#10;&#9;c-7-13.1-13.7-26.4-20.8-39.5c-5.3-9.8-9.3-20-12.7-30.5c-5.2-16-9.1-32.3-11.1-49c-0.8-6.5-1.4-13-1.4-19.6c0-1.9,0-3.8,0-5.8&#10;&#9;c0-3.6,0.1-4.1-3.6-2.8c-12.9,4.3-25.9,3.3-38.7-0.4c-3.1-0.9-6-2.1-9-3.3c-1.9-0.8-2.2-2.9-0.8-4.3c0.9-0.9,1.9-1.7,2.9-2.5&#10;&#9;c23.8-19.2,47.6-38.4,71.3-57.6c2.2-1.8,4.4-3.7,6.4-5.8c11.1-11.2,24.4-19.1,39-24.7c10-3.9,20.4-6.5,30.9-8.6&#10;&#9;c14-2.8,28.1-4.7,42.2-6.1c20.1-2,40.2-3.2,60.3-3.8c1.2,0,3,0.5,3.6-0.6c0.8-1.6-1.1-2.4-2.1-3.3c-17.6-18.1-35.3-36.2-52.9-54.3&#10;&#9;c-22.7-23.2-45.4-46.5-68.1-69.7c-19-19.5-38-38.9-57-58.4c-20.9-21.4-41.8-42.8-62.7-64.2c-19.2-19.7-38.5-39.3-57.7-59.1&#10;&#9;c-6.4-6.6-14.2-9.5-23.3-9.2c-8.2,0.3-15.2,3.2-20.9,9.2c-9.3,9.9-18.7,19.8-28,29.6C974.7,513.7,874.2,619.9,773.6,726&#10;&#9;c-83.8,88.5-167.6,177-251.5,265.5c-15.9,16.8-31.9,33.7-47.8,50.6c-4.9,5.2-10.6,8.7-17.7,9.8c-9.9,1.5-18.8-0.8-26.1-7.8&#10;&#9;c-4.6-4.5-8.9-9.2-13.5-13.7c-7.7-7.6-16.9-9.1-27-5.8c-3.9,1.3-7,3.7-9.8,6.7c-9.6,10.6-19.2,21.1-28.8,31.6&#10;&#9;c-44.4,48.7-88.8,97.5-133.2,146.2c-22.1,24.2-44.2,48.5-66.3,72.7c-1,1.1-1.9,2.2-2.9,3.2c-1.6,1.6-2,1.6-4.2,0.6&#10;&#9;c-0.6-0.3-1.2-0.6-1.8-0.9C143.3,1284,143.3,1283.4,143.3,1282.7z"/>
<path fill="#D3B18F" d="M1608.2,998.8c0-59,0-118.1,0-177.1c0-1.6,0-3.2,0.1-4.8c0.1-1.2,1.2-2.1,2.2-2.1c1,0,2.2,0.9,2.3,2&#10;&#9;c0.1,1.3,0.1,2.6,0.1,3.8c0,15.2,0,30.4,0,45.6c0,1.4,0,2.9,0.1,4.3c0,0.7,0.4,1.2,1.2,1.3c0.8,0.1,1.6,0.1,2.4,0.1&#10;&#9;c18.4-0.2,36.8-0.8,55.1-2.9c8.7-1,16.4-4,23.3-9.3c8.8-6.6,14.9-15.3,19.1-25.4c5.9-14.3,7.7-29.3,7.1-44.7c-0.1-3-0.3-6.1-0.3-9.1&#10;&#9;c0-93.6,0-187.2,0-280.8c0-1.8,0-3.5,0-5.3c0-5.3-1-10.5-2.6-15.5c-7.4-22.6-28.3-37.8-52.3-38.1c-13.6-0.2-27.2,0-40.8,0&#10;&#9;c-4.5,0-8.9,0.6-13.3,1.7c-25.4,6.4-41.6,29.1-41.8,52.3c-0.1,15.5-0.5,31-0.8,46.5c-0.3,17.1-0.6,34.2-1,51.3&#10;&#9;c-0.3,17.8-0.7,35.5-1,53.3c-0.2,13.3-0.4,26.6-0.6,39.8c0,1.6,0,3.2-0.2,4.8c-0.2,2.1-1,2.7-3.1,2.8c-0.5,0-1,0-1.4,0&#10;&#9;c-4.8-0.2-9.6-0.3-14.4-0.5c-17.6-0.9-35.2-1-52.8-1.3c-11.8-0.2-23.7,0.2-35.5,0.3c-24.5,0.3-48.9,1.5-73.3,4&#10;&#9;c-15.6,1.5-31.1,3.6-46.5,6.9c-11.6,2.5-23,5.7-33.8,10.6c-28.9,13.1-47.2,34.9-54.3,65.9c-3.9,17-4,34.3-2,51.5&#10;&#9;c1.9,15.9,5.4,31.5,10.3,46.8c3.6,11.3,7.8,22.3,13.5,32.8c7.3,13.5,14.3,27.2,21.4,40.8c1.7,3.1,2.9,6.4,3.8,9.8&#10;&#9;c1,3.7,1.7,7.5,2.2,11.3c0.9,7.4,0,14.7-2.6,21.7c-0.8,2.2-2,3.9-3.9,5.3c-5.7,4.4-11.2,9.1-16.9,13.4c-2.8,2.1-4.2,4.7-4.7,8&#10;&#9;c-0.4,2.4-0.3,4.8,0.2,7.2c0.6,3.2,2.1,6,3.7,8.8c19.6,35.2,39.2,70.4,58.8,105.7c0.5,1,1.1,2,1.6,2.9c0.5,0.9,1.3,1.4,2.4,1.4&#10;&#9;c2.2,0,4.5,0,6.7,0c1.3,0,1.8-0.7,1.2-1.8c-2.2-3.9-4.4-7.8-6.6-11.7c-0.6-1.1-1.3-2.2-1.7-3.4c-0.3-0.9,0.1-1.9,1.1-2.4&#10;&#9;c1-0.6,1.9-0.5,2.7,0.2c0.7,0.6,1.2,1.5,1.7,2.3c2.3,4,4.5,8.1,6.9,12.1c3.2,5.5,1.6,4.7,8.5,4.8c0.5,0,1,0,1.4-0.1&#10;&#9;c1-0.1,1.3-0.7,0.9-1.7c-0.5-1.5-1.1-3-1.7-4.5c-8.7-21.1-17.4-42.3-26.1-63.4c-4.5-10.9-9-21.9-13.5-32.8&#10;&#9;c-1.7-4.1-2.4-8.3-1.1-12.6c1.7-5.9,5-10.3,11.3-11.9c1.4-0.3,2.8-0.7,4.2-1c10.5-1.9,19.7-6.6,27.6-13.6c2.6-2.3,5.2-4.7,7.7-7.2&#10;&#9;c18.5-19,27.8-41.9,27.9-68.4c0.1-15.7-3-30.8-8.3-45.5c-1.6-4.5-3.5-8.9-5.6-13.3c-1.1-2.3-0.1-3.7,2.4-3.8c0.5,0,1,0,1.4,0&#10;&#9;c13.9,0.5,27.8,1.1,41.7,1.6c14.2,0.5,28.5,1.1,42.7,1.6c17.7,0.5,35.5,1,53.2,1.4c3,0.1,6.1,0.2,9.1,0.2c1.2,0,1.8-0.6,1.7-1.8&#10;&#9;c-0.2-4-0.5-8-0.8-12c-0.8-10.4-1.6-20.7-2.4-31.1c-0.1-1.1-0.1-2.2,0-3.3c0.1-1.1,1-1.6,2-1.7c1-0.1,1.9,0.5,2.3,1.4&#10;&#9;c0.2,0.6,0.3,1.2,0.4,1.9c0.3,4.1,0.7,8.3,1,12.4c0.7,9.7,1.5,19.5,2.2,29.2c0.8,10.5,1.7,21,2.5,31.6c0.8,10.2,1.5,20.4,2.3,30.6&#10;&#9;c0.3,4.1,0.4,8.3,1.1,12.4c2.4,15.2,5,30.3,7.6,45.4c3.4,19.9,6.8,39.7,10.1,59.6c3.4,19.9,6.6,39.7,10,59.6&#10;&#9;c4,23.6,8.1,47.3,12,70.9c1.1,6.4,0.9,5.3,6.6,5.4c0.3,0,0.6,0,1-0.1c0.9-0.1,1.4-0.6,1.5-1.5c0-1.1,0-2.2,0-3.4&#10;&#9;c-0.2-4.3-0.4-8.6-0.6-12.9c-0.1-1.1-0.2-2.2,0.4-3.3c0.5-0.8,1.1-1.1,2-1.1c0.9,0,1.7,0.3,1.9,1.2c0.3,1.2,0.6,2.5,0.7,3.8&#10;&#9;c0.2,4,0.3,8,0.5,12c0.1,1.3,0.1,2.6,0.3,3.8c0.1,0.7,0.5,1.3,1.1,1.3c1.9,0.2,4,0.8,5.5-0.4c1.2-0.9,0.5-2.7,0.6-4.1&#10;&#9;c0.1-1.3,0-2.6,0-3.8C1608.2,1115.2,1608.2,1057,1608.2,998.8z"/>
<path fill="#9B724E" d="M1434.2,873.5c-6.9-0.3-19.5-0.9-32.2-1.4c-3.2-0.1-6.4-0.2-9.6-0.3c-1.6,0-1.9,0.4-1.3,2.1&#10;&#9;c0.2,0.6,0.5,1.2,0.7,1.8c2.1,5.2,4,10.5,5.5,15.8c5.6,19.5,7.3,39.3,3.3,59.3c-0.6,2.8-0.5,5.3,0.2,8c3.1,12.1,2.3,24.1-2,35.8&#10;&#9;c-1,2.7-2.4,5.2-4.2,7.5c-4.9,5.9-9.6,12-14.5,17.9c-2.3,2.7-3.3,5.8-3.6,9.2c-0.4,5.1,0.9,9.7,3.6,14.1&#10;&#9;c22.1,36.5,44.2,73.1,66.2,109.6c0.5,0.8,1,1.6,1.5,2.5c0.6,1.1,1.6,1.5,2.8,1.5c2.2,0,4.5,0,6.7,0c1.3,0,1.7-0.7,1.2-1.9&#10;&#9;c-0.5-1.2-1.1-2.3-1.6-3.5c-2.2-4.6-4.5-9.2-6.8-13.8c-0.5-1-1-2-1.3-3.1c-0.4-1.2,0.1-2.3,1.1-2.9c1-0.6,2.2-0.3,2.9,0.8&#10;&#9;c0.7,1.1,1.2,2.2,1.8,3.4c2.9,5.9,5.9,11.7,8.6,17.7c1.2,2.6,2.8,3.7,5.5,3.3c0.8-0.1,1.6,0,2.4-0.1c1.5-0.1,2-0.8,1.3-2.2&#10;&#9;c-2.2-5-4.5-9.9-6.8-14.8c-13.5-29.1-26.9-58.4-40.7-87.4c-4.4-9.3-1.8-21,8.7-26c1.9-0.9,3.7-1.9,5.6-2.7c7.6-3.5,14.6-8,21-13.4&#10;&#9;c4.8-4,9.2-8.4,13.5-12.9c17.6-18.3,25.9-40.4,26.7-65.5c0.3-8.7-0.5-17.3-1.9-25.8c-1.6-9.6-4-19.1-7.3-28.3&#10;&#9;c-0.6-1.6-1.4-2.4-3.1-2.4c-1.1,0-2.2-0.1-3.4-0.2C1470,874.7,1455,874.2,1434.2,873.5z"/>
<path fill="#9B724E" d="M1683.1,1026.9c0-49.4,0-98.9,0-148.3c0-1.6,0-3.2,0-4.8c-0.1-1.6-0.5-1.9-2.1-1.6c-8.6,2-17.4,2.7-26.2,3.2&#10;&#9;c-10.7,0.6-21.4,1.3-32.1,1.2c-1,0-1.9,0-2.9,0c-1.5,0.1-2,0.7-1.9,2.1c0.3,3.7,0.8,7.3,1.2,11c1.2,10.6,2.3,21.3,3.5,31.9&#10;&#9;c0.8,7,1.4,14,2.4,21c2.3,15.3,4.8,30.6,7.2,46c2.3,14.8,4.7,29.7,7,44.5c2.4,15.2,4.8,30.3,7.2,45.5c2.4,15.2,4.8,30.3,7.2,45.5&#10;&#9;c2.8,17.5,5.5,35.1,8.3,52.6c1,6.2,0.4,5.3,6.6,5.3c2,0,2.3-0.3,2.3-2.2c-0.1-4.6-0.3-9.3-0.5-13.9c0-0.8-0.1-1.6-0.2-2.4&#10;&#9;c-0.1-2.4,0.6-3.6,2.1-3.7c1.7-0.2,2.6,0.9,2.8,3.6c0.1,1.3,0.1,2.6,0.2,3.8c0.1,3,0.2,6.1,0.3,9.1c0.1,1.3,0.2,2.6,0.3,3.8&#10;&#9;c0.1,1.1,0.6,1.8,1.8,1.8c5.8,0.1,5.4,0.6,5.4-4.9c0-1.1,0-2.2,0-3.4C1683.1,1124.8,1683.1,1075.9,1683.1,1026.9z"/>
<path fill="#F6BDBE" d="M1482.1,250.8c-13.9,0.5-27.8,0.7-41.7,1.7c-10.4,0.7-20.7,1.4-31.1,2.2c-3,0.2-3.3,0.7-2.1,3.6&#10;&#9;c0.3,0.7,0.6,1.5,0.9,2.2c5.8,13.7,11.6,27.4,17.5,41.1c3.6,8.5,7.2,17.1,10.9,25.6c1.1,2.5,1.4,2.6,4,2.3c0.6-0.1,1.3-0.2,1.9-0.3&#10;&#9;c6.7-0.8,13.3-1.8,20-2.4c14-1.2,28.1-1.5,42.2-1.2c3,0.1,6.1,0,9.1,0.1c1.2,0,2.2-0.4,2.5-1.7c0.3-0.9,0.6-1.8,0.9-2.7&#10;&#9;c5.7-16.6,11.4-33.3,17.1-49.9c1.9-5.6,3.8-11.2,5.7-16.8c0.4-1.2,0-1.9-1.2-2c-2.4-0.3-4.8-0.6-7.2-0.7&#10;&#9;C1515.1,251,1498.6,250.4,1482.1,250.8z"/>
<path fill="#F6B7A9" d="M1848.2,329.5c1.8,0.1,2.2-0.1,3-1.7c0.3-0.6,0.5-1.2,0.8-1.7c9.5-22.4,19-44.7,28.5-67.1&#10;&#9;c0.3-0.7,0.6-1.5,0.9-2.2c0.4-0.9,0-1.5-0.9-1.8c-0.4-0.2-0.9-0.2-1.4-0.2c-8.8-0.7-17.5-1.5-26.3-2c-11-0.6-22-1.1-33-1.5&#10;&#9;c-21.3-0.9-42.5-0.4-63.7,0.7c-2.2,0.1-4.5,0.4-6.7,0.6c-1.4,0.2-1.6,0.6-1.2,1.9c0.3,1.1,0.7,2.1,1,3.2c7.2,21,14.3,42,21.5,63&#10;&#9;c2,5.8,0.8,5.1,7.4,5c21.3-0.3,42.5,0,63.6,2.9C1843.7,328.8,1846,329.2,1848.2,329.5z"/>
<path fill="#F0AAA7" d="M1627.8,314.4c-0.7-8.4-2.5-16.1-5.6-23.6c-5.6-13.8-15.2-23.4-29.4-28.4c-14.6-5.2-29.7-7.6-45-9&#10;&#9;c-2.1-0.2-2.3,0-3.1,2.2c-0.3,0.7-0.5,1.5-0.8,2.3c-7.2,21-14.4,42-21.5,63.1c-0.4,1.2-0.8,2.4-1.2,3.6c-0.2,0.7,0.2,1.3,0.9,1.3&#10;&#9;c3,0.3,6,0.6,9.1,0.8c5,0.3,9.8,1.2,14.6,2.7c12,4,18.7,12.4,20.1,24.9c0.8,6.8,1.2,13.7,1.9,20.5c0.1,1.2-0.5,2.9,1,3.3&#10;&#9;c1.1,0.3,1.7-1.2,2.6-1.9c0.2-0.2,0.4-0.5,0.7-0.7c17.5-18.6,35.1-37.3,52.6-55.9c0.7-0.7,1.3-1.4,2-2.1&#10;&#9;C1627.5,316.6,1627.9,315.4,1627.8,314.4z"/>
<path fill="#F6BDBE" d="M1738.9,253.4c-8.3,0.8-16.5,2-24.6,3.7c-8,1.6-15.8,3.7-23.3,7c-7,3.1-13,7.5-17.7,13.6&#10;&#9;c-8.3,10.7-11.7,23.3-13.2,36.5c-0.2,1.4,0.2,2.5,1.2,3.4c0.6,0.5,1.1,1.2,1.7,1.7c15.5,16.4,30.9,32.8,46.4,49.2c2.8,3,5.7,6,8.6,9&#10;&#9;c0.3,0.3,0.8,0.5,1.2,0.6c0.5,0,0.7-0.6,0.7-1c0.2-2.5,0.5-5.1,0.7-7.6c0.5-6.1,0.9-12.1,1.9-18.1c1.7-9.3,6.7-16.1,15.2-20.2&#10;&#9;c2.2-1,4.4-1.9,6.7-2.5c4.2-1.2,8.4-1.9,12.7-2c2.6-0.1,5.1-0.3,7.6-0.6c1.8-0.2,2.1-0.7,1.5-2.6c-0.2-0.6-0.4-1.2-0.6-1.8&#10;&#9;c-7.3-21.5-14.7-42.9-22-64.4c-0.3-0.9-0.7-1.8-1-2.7c-0.3-0.9-1-1.2-1.9-1.2C1740.2,253.3,1739.5,253.4,1738.9,253.4z"/>
<path fill="#F6BDBE" d="M1955.7,348.3c-0.1-10.7,0.2-21.4-0.8-32.1c-0.1-1.2,0.4-2.9-0.8-3.5c-1.5-0.8-2.6,0.8-3.6,1.6&#10;&#9;c-16.5,12-33.1,24.1-49.6,36.1c-0.5,0.4-1,0.7-1.5,1.2c-1.2,1-1.3,1.4-0.3,2.8c5,7.2,8.2,15.1,10.2,23.6c1.5,6.6,2.4,13.2,2.3,20&#10;&#9;c-0.1,13.9-2.2,27.4-9.2,39.7c-1,1.8-1,2,0.9,3.6c6.4,5.6,12.8,11.1,19.2,16.6c4.9,4.2,4,4.8,8.7-0.7c3.1-3.5,5.5-7.4,7.7-11.5&#10;&#9;c2.2-4.1,4-8.3,5.6-12.7c5.2-14.2,7.8-29,9.3-43.9C1955.1,375.5,1955.7,361.9,1955.7,348.3z"/>
<path fill="#F6B7A9" d="M1332.2,346.3c0.1,15.7,0.5,31.3,2.3,46.9c1.4,11.6,3.4,23.1,6.9,34.2c2.7,8.7,6.3,17.1,11.4,24.7&#10;&#9;c1.9,2.8,3.9,5.4,6.3,7.8c1.6,1.6,2,1.6,3.6,0.2c3.9-3.3,7.8-6.7,11.6-10c3.6-3.1,7.2-6.3,10.9-9.4c1-0.9,1.1-1.7,0.4-2.9&#10;&#9;c-2.6-4.4-4.5-9.1-6-14.1c-3.5-12.3-4.2-24.9-2.6-37.5c1.4-11.2,4.8-21.8,11.2-31.3c0.3-0.4,0.5-0.8,0.8-1.2&#10;&#9;c0.4-0.6,0.3-1.2-0.2-1.7c-0.5-0.4-1-0.8-1.5-1.2c-17-12.4-34.1-24.9-51.1-37.3c-2.5-1.8-3-1.6-3.4,1.6c-0.3,1.9-0.4,3.8-0.4,5.7&#10;&#9;C1332.5,329.4,1332.4,337.8,1332.2,346.3z"/>
<path fill="#F6BDBE" d="M1628.2,388.4c0-13.4,0-26.9,0-40.3c0-1.5,1-3.6-0.9-4.2c-1.2-0.4-2.2,1.5-3.2,2.5&#10;&#9;c-16.3,16.5-32.5,33-48.8,49.6c-1.9,1.9-4.7,3.5-5.3,6c-0.7,2.7-0.2,5.7,0,8.6c0.9,15,1.9,30,2.9,45c0.1,2.2,0.4,4.5,0.6,6.7&#10;&#9;c0,0.4,0.1,1.1,0.7,1c0.4,0,0.8-0.4,1.1-0.7c0.6-0.7,1.1-1.6,1.7-2.3c9.1-11.9,20.9-19.6,35.6-22.7c3.4-0.7,7-1,10.4-1.4&#10;&#9;c3.6-0.4,5.1-2,5.2-5.5c0-1.1,0-2.2,0-3.4C1628.2,414.3,1628.2,401.4,1628.2,388.4z"/>
<path fill="#F6BDBE" d="M1659.8,388.3c0,1.8,0,3.5,0,5.3c0,12.5,0,25,0,37.4c0,3,1.6,4.7,4.5,5.1c0.8,0.1,1.6,0,2.4,0.1&#10;&#9;c17.5,0.6,32.2,7.3,44,20.3c0.9,0.9,1.7,1.9,2.6,2.8c0.2,0.2,0.6,0.2,0.9,0.1c0.2-0.1,0.5-0.4,0.5-0.7c0.4-4.8,0.8-9.6,1.1-14.3&#10;&#9;c0.8-12.9,1.5-25.9,2.4-38.8c0.2-2.6-0.4-4.5-2.2-6.4c-17.3-17.5-34.6-35.1-51.9-52.6c-0.9-0.9-1.8-1.8-2.8-2.6&#10;&#9;c-0.5-0.5-1.3-0.1-1.4,0.6c-0.1,1.3-0.1,2.6-0.1,3.8C1659.8,361.7,1659.8,375,1659.8,388.3z"/>
<path fill="#F6B7A9" d="M1953,304.5c0,0-0.1-0.6-0.2-1.3c-2.5-9.6-6.8-18.2-13.8-25.4c-8-8.2-17.5-13.8-28.2-17.5&#10;&#9;c-5.8-2-5.2-1.8-7.3,3.2c-9.7,22.6-19.4,45.2-29,67.8c-0.4,0.9-0.8,1.8-1.1,2.7c-0.3,0.9-0.1,1.6,0.8,2c1.2,0.5,2.4,1,3.5,1.5&#10;&#9;c5.3,2.3,10.3,5.2,14.5,9.2c0.5,0.4,0.9,0.9,1.4,1.3c0.7,0.6,1.4,0.7,2.1,0.1c0.8-0.6,1.6-1.1,2.3-1.7c17.2-12.5,34.3-25,51.5-37.6&#10;&#9;c0.9-0.7,1.8-1.3,2.7-2C1952.7,306.4,1953.1,305.8,1953,304.5z"/>
<path fill="#F0AAA7" d="M1414.7,334.4c-0.4-0.9-0.8-1.9-1.2-3c-9.7-22.8-19.4-45.5-29.2-68.3c-0.4-0.9-0.7-1.8-1.2-2.6&#10;&#9;c-0.7-1.3-1.3-1.5-2.7-1.2c-0.5,0.1-0.9,0.2-1.4,0.4c-9.5,3.1-18.3,7.6-25.9,14.2c-9.2,7.8-15,17.7-18,29.4c-0.5,2-0.2,3.2,1.5,4.4&#10;&#9;c6.8,4.8,13.4,9.8,20.2,14.7c11.4,8.3,22.7,16.6,34.1,24.9c2.3,1.7,2.4,1.7,4.4-0.2c4.1-3.9,8.8-6.8,14-9.1c1.5-0.6,2.9-1.2,4.4-1.9&#10;&#9;C1414.3,335.8,1414.6,335.3,1414.7,334.4z"/>
<path fill="#F6B7A9" d="M1857.7,402c0-2.7,0-5.4,0-8.2c0-1.5-0.5-2-2-2c-2.9-0.1-5.8,0-8.6,0c-1.4,0-2,0.7-2.3,1.9&#10;&#9;c-0.1,0.6-0.2,1.3-0.3,1.9c-1.5,10.6-2.2,21.3-1,32c1,8.5,2.9,16.7,6.9,24.3c4.9,9.1,12,15.8,21.8,19.3c12.1,4.3,24.4,4.7,36.8,1.2&#10;&#9;c4.5-1.3,8.6-3.4,12.4-6.1c1.2-0.9,1.3-1.6,0.1-2.7c-0.7-0.7-1.4-1.3-2.2-1.9c-5.9-5.1-11.9-10.2-17.8-15.4&#10;&#9;c-0.7-0.6-1.5-1.2-2.2-1.9c-0.7-0.6-1.4-0.6-2.1,0c-1,0.8-1.9,1.7-2.9,2.5c-6.3,4.5-14.1,4.7-20.7,0.6c-2.9-1.8-5.1-4.3-7-7.1&#10;&#9;c-2.7-4.1-4.3-8.6-5.5-13.2C1858.8,418.9,1857.8,410.5,1857.7,402z"/>
<path fill="#F6BDBE" d="M1445.1,414.4c0.2-4.6-0.3-10.3-1.2-16c-1.2-7.5,0.3-6.6-7.3-6.7c-1.3,0-2.6,0-3.8,0&#10;&#9;c-2.1,0.1-2.3,0.3-2.4,2.6c0,0.5,0,1,0,1.4c-0.1,7.8-0.5,15.7-1.7,23.4c-0.9,5.7-2.3,11.3-4.8,16.5c-1.7,3.7-3.8,7-6.8,9.7&#10;&#9;c-5.8,5.3-15.8,7.3-23.8,1c-0.8-0.6-1.5-1.2-2.2-1.9c-1.3-1-1.4-1-2.9,0.1c-0.3,0.2-0.5,0.4-0.7,0.6c-6.8,5.9-13.6,11.7-20.3,17.6&#10;&#9;c-0.4,0.3-0.7,0.6-1.1,1c-0.6,0.7-0.7,1.4,0.2,2c3.2,2.4,6.7,4.3,10.5,5.6c13.2,4.5,26.4,4.1,39.5-0.6c7.8-2.8,13.9-7.8,18.6-14.6&#10;&#9;c2.9-4.1,4.9-8.6,6.5-13.3C1444.1,434.1,1445.1,425,1445.1,414.4z"/>
<path fill="#D3B18F" d="M1737.1,470.6c1.1,0,2.4,0.1,3.6,0c14.2-1,25.3-7.2,32.6-19.6c0.9-1.5,1.7-3.1,2.4-4.7&#10;&#9;c2.5-5.4,4.5-10.9,5.9-16.7c1.5-6.2,2.5-12.5,2.2-19c0-0.9,0.4-2.1-0.8-2.5c-0.9-0.3-1.4,0.6-1.9,1.1c-0.7,0.7-1.4,1.3-2,2&#10;&#9;c-17.7,17.7-35.4,35.4-53.2,53.2c-0.8,0.8-1.6,1.6-2.4,2.4c-1.2,1.3-0.9,2.2,1,2.5C1728.6,470.2,1732.7,470.9,1737.1,470.6z"/>
<path fill="#D3B18F" d="M1550.6,470.7c1.2,0,2,0,2.8,0c3.5,0,7-0.7,10.4-1.3c1.2-0.2,1.5-1.2,0.8-2.1c-0.5-0.6-1.1-1.2-1.6-1.7&#10;&#9;c-18.4-18.4-36.8-36.8-55.2-55.2c-0.8-0.8-1.6-2.4-3-1.8c-1,0.4-0.7,2-0.8,3.1c0,0.6,0,1.3,0,1.9c0.5,13.3,4.1,25.8,10.6,37.4&#10;&#9;c5.3,9.5,13.4,15.7,24.1,18.3C1542.6,470.3,1546.8,470.9,1550.6,470.7z"/>
<path fill="#9B724E" d="M1222.3,802.5c5.5-0.2,11.2-0.9,16.6-2.8c4.8-1.7,4.9-1.7,5.3-6.7c1.4-13.8,4.9-27,11.2-39.4&#10;&#9;c0.4-0.7,0.7-1.4,1-2.2c0-0.1,0-0.4-0.1-0.4c-0.3-0.1-0.6-0.2-0.8-0.1c-0.9,0.6-1.8,1.3-2.7,2c-17.2,13.8-34.3,27.7-51.5,41.5&#10;&#9;c-0.6,0.5-1.2,1-1.8,1.5c-1.5,1.3-1.4,2,0.4,2.6C1207.1,801.1,1214.4,802.3,1222.3,802.5z"/>
<path fill="#EFD2E6" d="M1398.9,255.7c-1.7,0.2-4,0.4-6.2,0.8c-6.4,1.2-5.7,0.6-3.4,5.9c9.3,21.8,18.6,43.5,27.9,65.2&#10;&#9;c3.2,7.5,1.7,6.2,9.2,4.6c1.6-0.3,3.1-0.7,4.6-1.2c0.9-0.3,1.3-0.9,0.9-1.8c-0.3-0.9-0.7-1.8-1.1-2.7c-9.5-22.4-19-44.7-28.5-67.1&#10;&#9;c-0.4-0.9-0.8-1.8-1.2-2.6C1400.9,256.1,1400.3,255.7,1398.9,255.7z"/>
<path fill="#F0AAA7" d="M1888.6,255.7c-0.8-0.2-1.7,0.4-2.1,1.6c-0.2,0.4-0.4,0.9-0.6,1.3c-9.7,22.9-19.5,45.8-29.2,68.8&#10;&#9;c-0.3,0.7-0.6,1.5-0.8,2.2c-0.2,0.7,0.3,1.3,0.9,1.5c2,0.6,4.1,0.9,6,1.5c6,1.7,5.2,1.5,7.5-3.9c8.8-20.5,17.6-41.1,26.3-61.7&#10;&#9;c1.3-3,3.3-5.8,3.2-9.3c-3.1-1.5-6.6-1.2-9.8-1.9C1889.7,255.8,1889.4,255.8,1888.6,255.7z"/>
<path fill="#F6B7A9" d="M1628.3,330.4c0-2.2,0-3.5,0-4.8c0-0.5-0.1-1.1-0.7-1.1c-0.4,0-0.9,0.2-1.2,0.5c-1,1-2,2.1-3,3.1&#10;&#9;c-17,18-34,36.1-51,54.1c-3.9,4.2-3.9,4.2-3.5,9.7c0.1,0.7-0.2,1.8,0.8,2c0.9,0.2,1.4-0.6,1.9-1.2c0.5-0.4,0.9-0.9,1.4-1.4&#10;&#9;c17-17.3,34-34.7,51.2-51.9C1627,336.5,1629.2,333.7,1628.3,330.4z"/>
<path fill="#F0AAA7" d="M1719.1,389.6c0.7-2.3-0.1-4.1-1.8-5.6c-0.6-0.5-1.1-1.1-1.7-1.7c-17.2-18.2-34.4-36.5-51.6-54.7&#10;&#9;c-1.1-1.2-1.8-3.1-3.9-3c-0.8,1.5-0.1,3.2-0.3,4.7c-0.6,4.3,1.2,7.4,4.2,10.5c17.1,17,33.9,34.3,50.8,51.4c1,1,1.9,2.9,3.2,2.5&#10;&#9;C1719.7,393.2,1718.6,391,1719.1,389.6z"/>


<path fill="#D8CBC0" d="M1560.2,1446.9c0-1.3-1.2-1.8-1.9-2.6c-6.4-6.4-12.8-12.9-19.3-19.3c-0.9-0.9-1.8-1.8-2.5-2.8&#10;&#9;c-0.7-0.9-0.4-2.3,0.4-3.1c0.8-0.8,2-1,3-0.2c0.8,0.6,1.5,1.2,2.1,1.9c6.4,6.4,12.9,12.8,19.3,19.3c0.3,0.3,0.7,0.7,1,1&#10;&#9;c1.7,1.9,1.8,2.2,0.5,4.6c-0.2,0.4-0.4,0.8-0.6,1.2C1561.5,1446.9,1560.9,1446.9,1560.2,1446.9z"/>
<path fill="#2D3130" d="M2162,995.9c-5.3,0.1-10.1-1.3-14.8-3.5c-3.1-1.5-5.6-3.5-7.8-6.2c-40.7-49.4-81.5-98.7-122.3-148&#10;&#9;c-5.5-6.7-11.1-13.2-16.5-20c-5.1-6.5-11.8-7.8-19.4-6.4c-4.7,0.8-8.3,3.5-11.3,7.5c-25.1,33.4-50.2,66.7-75.4,100&#10;&#9;c-1,1.3-2,2.5-3.1,3.7c-0.7,0.7-1.7,0.8-2.6,0.2c-1-0.7-1.6-1.9-1.1-2.9c0.6-1.1,1.3-2.2,2.1-3.2c15.4-20.4,30.8-40.9,46.2-61.3&#10;&#9;c10-13.3,20.4-26.3,29.9-39.9c6.7-9.6,22.8-12.8,33.6-5.7c1.9,1.3,3.3,3,4.7,4.7c11.9,14.4,23.9,28.8,35.8,43.3&#10;&#9;c34,41.2,68.1,82.3,102.1,123.6c6.4,7.7,14.6,9.8,24,8.9c3.2-0.3,6.2-1.4,9.1-2.9c2.6-1.3,4.7-3.2,6.7-5.4c13.2-15,26.4-30,39.6-45&#10;&#9;c56.3-63.9,112.5-127.7,168.8-191.6c5.8-6.6,11.8-13.1,17.4-19.8c5-6,11.5-9.1,19-10.2c6.6-1,13.1-0.1,19.2,2.8&#10;&#9;c2.9,1.4,5.5,3.1,7.8,5.4c29.8,29.9,59.6,59.8,89.5,89.7c0.7,0.7,1.4,1.4,2,2c32.2,32.3,64.4,64.5,96.7,96.8c1,1,2.1,2,3,3.1&#10;&#9;c1.2,1.4,1.2,2.9,0.1,3.8c-1,0.8-2.3,0.8-3.5-0.2c-1.1-0.9-2.1-2-3.1-3c-22.5-22.5-45-45.1-67.5-67.6&#10;&#9;c-26.9-26.9-53.8-53.9-80.7-80.8c-13-13-26-26.1-39-39.1c-8.4-8.4-20.1-10.6-30.9-5.9c-3.3,1.4-6,3.5-8.4,6.2&#10;&#9;c-17.9,20.4-35.9,40.8-53.9,61.2c-51.4,58.3-102.8,116.7-154.2,175c-5.8,6.6-11.8,13.1-17.4,19.8&#10;&#9;C2180.1,992.7,2171.7,995.6,2162,995.9z"/>
<path fill="#D8CBC0" d="M1756.4,1331.4c3.7-3.4,8.2-5.4,12.9-7c1.7-0.6,3.5-0.6,5.2-0.5c4.6,0.3,7.5,4,6.8,8.6c-0.3,1.9-1,3.7-2,5.3&#10;&#9;c-1.5,2.5-3.3,4.7-5.4,6.7c-11.6,11.2-25,19.9-39.8,26.1c-5.3,2.2-10.6,2.2-15.9,0c-0.7-0.3-1.5-0.6-2.2-0.9&#10;&#9;c-12.9-5.8-24.7-13.4-35.2-22.9c-2.5-2.2-4.8-4.7-6.7-7.5c-1.4-2-2.5-4.1-3-6.5c-1-4.9,2.1-8.9,7.2-9.1c1.8-0.1,3.5,0,5.2,0.6&#10;&#9;c4.5,1.6,8.9,3.6,12.5,6.8c0,0,0.1-0.2,0.1-0.2l-0.2,0.1c0.9-1,0.6-2,0.3-3.1c-0.7-2.6-1.4-5.2-2.1-7.8c-0.5-2-0.5-4.1-0.4-6.2&#10;&#9;c0.1-0.9,0.2-1.9,0.5-2.8c1.6-5.1,6.2-7,11-4.7c2.2,1.1,3.9,2.7,5.4,4.6c1.4,1.7,2.6,3.6,4,5.4c0.2,0.2,0.6,0.6,0.7,0.5&#10;&#9;c0.4-0.2,0.8-0.6,0.9-0.9c0.5-2.2,0.9-4.4,1.5-6.5c0.6-2.2,1.5-4.2,2.9-6c3.4-4.2,8.9-4.2,12.3,0c1.2,1.5,2.1,3.2,2.6,5.1&#10;&#9;c0.6,1.8,0.9,3.7,1.4,5.6c0.1,0.4,0.4,0.9,0.7,1.1c0.8,0.4,1.1-0.4,1.4-0.8c1.6-2.2,3.2-4.4,5.3-6.2c1.7-1.5,3.6-2.6,6-2.7&#10;&#9;c3.6-0.2,6.1,1.4,7.5,4.7c1.2,2.9,1.1,6,0.5,9c-0.6,3-1.4,5.9-2.2,8.8c-0.3,1.1-0.6,2.2,0.3,3.1c0,0-0.2-0.2-0.2-0.2L1756.4,1331.4z&#10;&#9;"/>


<path fill="#2D3130" d="M1775.7,1186.9c-10.7,0-21.4,0-32.1,0c-5.5,0-5.7-0.3-5-5.8c0.8-6.9,2.4-13.5,5.1-19.9&#10;&#9;c1.5-3.6,3.3-6.9,5.8-9.9c3.3-3.9,7.4-6.5,12.6-7c0.6-0.1,1.3-0.2,1.9-0.2c1.3,0,2-0.8,2.3-2c0.4-2,0.9-4.1,1.3-6.1&#10;&#9;c1.2-5.3,2.6-10.5,4.8-15.5c1.5-3.5,3.3-6.9,5.9-9.8c2.2-2.4,4.9-4.1,8.2-4.4c3.9-0.4,7.2,1.1,9.9,3.8c2.2,2.1,3.8,4.7,5.2,7.4&#10;&#9;c2.8,5.5,4.5,11.3,5.9,17.2c2.1,9,3.3,18.2,4.2,27.5c0.6,6.4,1,12.7,1.2,19.1c0,1,0.1,1.9,0.1,2.9c-0.1,1.8-0.9,2.6-2.7,2.7&#10;&#9;c-1.3,0.1-2.6,0.1-3.8,0.1C1796.2,1186.9,1786,1186.9,1775.7,1186.9z"/>
<path fill="#B2ACBF" d="M1764,1182C1764,1182.1,1764,1182.1,1764,1182c5.3,0,10.6,0,15.8,0c1.1,0,2.2,0,3.4-0.1&#10;&#9;c0.9-0.1,1.5-0.5,1.4-1.5c-0.7-6.5-2-13-4.7-19c-1.4-3.1-3.2-5.9-5.6-8.3c-5.3-5.4-14.5-5.7-20.2,0.3c-2.2,2.4-3.9,5.1-5.2,8&#10;&#9;c-2.7,5.7-4.2,11.7-5.2,17.9c-0.4,2.3,0,2.7,2.5,2.7C1752.1,1182.1,1758.1,1182,1764,1182z"/>
<path fill="#2D3130" d="M1062.5,1008.2c-0.3-1.6-0.4-3.2,0.1-4.7c1.2-3.7,4.6-5,8-3.2c1.6,0.8,2.3,2.8,4.2,3&#10;&#9;c0.7-1.4,1.4-2.9,2.3-4.1c2.3-3.3,6.4-3.3,8.9-0.1c0.2,0.3,0.3,0.5,0.5,0.8c0.7,1,0.6,2.8,2.1,2.8c0.9,0,1.7-1.3,2.6-2&#10;&#9;c4-2.7,8.1-0.8,8.8,4c0.1,0.6,0,1.3,0.1,1.9c0.2,1.5-1.2,3-0.1,4.6c1.5-0.5,3-0.9,4.5-1.4c1.2-0.4,2.5-0.6,3.8-0.3&#10;&#9;c3.1,0.7,4.7,3.5,4,6.6c-0.4,1.4-0.9,2.7-1.9,3.8c-1.1,1.3-2.2,2.7-3.5,3.9c-5.7,5.2-12.1,9.3-19.1,12.6c-4.3,2-8.5,2.1-12.9,0.1&#10;&#9;c-7-3.3-13.4-7.3-19.1-12.6c-1.4-1.3-2.7-2.8-3.8-4.3c-0.7-0.9-1.2-1.9-1.5-3c-1.5-4.5,1.7-8.1,6.4-7.2c1.4,0.3,2.7,0.9,4.1,1.4&#10;&#9;c1.8,0.7,2.2,0.3,1.9-1.7C1062.7,1008.8,1062.6,1008.5,1062.5,1008.2z"/>









<path fill="#2D3130" d="M1061.8,1081.1c0,1.7-1.8,3.1-3,2.6c-0.6-0.2-1.1-0.6-1.6-1c-1-0.9-1.8-1.8-2.7-2.7&#10;&#9;c-46-46-92.1-92.1-138.1-138.1c-0.9-0.9-1.8-1.8-2.7-2.7c-1.2-1.4-1.3-2.8-0.2-3.8c1.1-1,2.3-0.9,3.8,0.4c1.1,1,2.1,2,3.1,3&#10;&#9;c38.3,38.3,76.7,76.7,115,115c7.7,7.7,15.4,15.4,23.1,23.1c0.9,0.9,1.8,1.8,2.6,2.8C1061.5,1080.2,1061.6,1080.8,1061.8,1081.1z"/>

<path fill="#2D3130" d="M1145.9,1047.6c0.2,0.1,0.9,0.2,1.4,0.5c1,0.8,1.9,1.7,2.8,2.6c28.6,28.6,57.2,57.2,85.8,85.8&#10;&#9;c1,1,2,2.1,2.9,3.2c0.7,0.9,0.3,2.3-0.5,3c-0.8,0.7-1.8,0.8-2.7,0.3c-0.8-0.5-1.5-1.2-2.2-1.8c-29.3-29.3-58.6-58.6-87.9-87.9&#10;&#9;c-0.8-0.8-1.7-1.5-2-2.6C1143,1049.3,1144.1,1047.7,1145.9,1047.6z"/>

<path fill="#2D3130" d="M1113.8,1133.8c0.8,0,1.6,0.2,2.2,0.7c0.8,0.8,1.6,1.5,2.4,2.3c28.7,28.7,57.4,57.4,86.1,86.1&#10;&#9;c0.9,0.9,1.8,1.8,2.5,2.9c0.7,0.9,0.4,2.4-0.4,3c-0.8,0.6-1.8,0.9-2.7,0.3c-0.8-0.5-1.5-1.1-2.2-1.8c-3-2.9-5.9-5.9-8.8-8.8&#10;&#9;c-25.9-25.9-51.8-51.7-77.6-77.6c-1.1-1.1-2.3-2.2-3.2-3.5C1111,1135.9,1112.1,1133.8,1113.8,1133.8z"/>
<path fill="#2D3130" d="M989.2,891.1c-0.1,1.8-1.8,2.9-3.2,2.3c-0.6-0.3-1.1-0.6-1.6-1c-0.9-0.9-1.8-1.8-2.7-2.7&#10;&#9;c-22.7-22.7-45.4-45.4-68.1-68.1c-1-1-2.1-2-3-3.1c-0.9-1.1-0.8-2.6,0.1-3.5c0.9-0.9,2.3-0.8,3.5,0.1c0.9,0.7,1.6,1.5,2.4,2.3&#10;&#9;c23.2,23.2,46.3,46.3,69.5,69.5c0.8,0.8,1.6,1.6,2.3,2.4C989,889.8,989.2,890.6,989.2,891.1z"/>
<path fill="#2D3130" d="M1130.7,914c0.8,0,1.6,0.3,2.2,0.9c0.8,0.8,1.6,1.6,2.4,2.4c23.1,23.1,46.1,46.1,69.2,69.2&#10;&#9;c1,1,2,2.1,2.9,3.2c0.7,0.8,0.5,1.8-0.1,2.7c-0.7,0.9-2,1.2-3,0.7c-0.5-0.3-1.1-0.7-1.5-1.1c-0.7-0.6-1.4-1.3-2-2&#10;&#9;c-22.9-22.9-45.9-45.9-68.8-68.8c-1.1-1.1-2.3-2.3-3.2-3.6C1127.7,916,1129,913.9,1130.7,914z"/>
<path fill="#D8CBC0" d="M1370.8,1322.2c0-4.8,0-9.6,0-14.4c0-1.1,0-2.2,0.2-3.3c0.2-1.1,0.9-1.7,2-1.7c1.3-0.1,2.3,0.6,2.5,1.7&#10;&#9;c0.2,1.2,0.3,2.5,0.3,3.8c0,9.3,0,18.5,0,27.8c0,1,0.1,1.9,0.2,2.9c0,0.1,0.6,0.3,0.7,0.3c0.4-0.5,0.8-1,1-1.6&#10;&#9;c2.3-5.1,4.6-10.2,6.9-15.3c0.5-1,0.9-2.1,1.5-3c0.8-1.4,2-1.8,3.2-1.3c1.2,0.6,1.8,1.8,1.3,3.2c-0.2,0.8-0.6,1.5-0.9,2.2&#10;&#9;c-4.4,9.8-8.8,19.5-13.2,29.3c-0.5,1-1,2-1.7,2.8c-0.8,1-2.7,0.8-3.4-0.1c-0.4-0.5-0.7-1.1-1-1.6c-4.7-10.5-9.5-21-14.2-31.4&#10;&#9;c-0.3-0.6-0.5-1.2-0.5-1.8c-0.1-1,0.2-1.9,1.2-2.4c1-0.5,2.4-0.3,3,0.6c0.6,0.9,1.1,2,1.5,3c2.3,5.1,4.6,10.2,6.9,15.3&#10;&#9;c0.3,0.7,0.7,1.4,1.1,2.1c0.1,0.2,0.5,0.1,0.8,0.1c0.1,0,0.3-0.2,0.3-0.3c0.1-0.8,0.1-1.6,0.1-2.4&#10;&#9;C1370.8,1331.8,1370.8,1327,1370.8,1322.2z"/>

<path fill="#2D3130" d="M1912.6,1190.3c0-2.6,0-5.1,0-7.7c0-0.8,0-1.6,0.1-2.4c0.2-1.2,1.1-2.1,2.2-2.1c1.1,0,2.2,0.8,2.3,2&#10;&#9;c0.1,1.3,0.1,2.5,0.1,3.8c0,5.6,0,11.2,0.1,16.8c0,0.3,0.1,0.7,0.3,0.8c0.6,0.3,0.9-0.2,1.1-0.6c1.3-2.7,2.5-5.5,3.8-8.2&#10;&#9;c0.5-1,1-2,1.6-2.9c0.6-0.8,1.5-1.1,2.5-0.6c0.9,0.5,1.4,1.3,1.3,2.3c0,0.6-0.2,1.3-0.4,1.8c-3.3,7.4-6.7,14.8-10.1,22.2&#10;&#9;c-0.2,0.4-0.4,0.9-0.7,1.2c-0.9,1.1-2.9,1.1-3.8-0.1c-0.5-0.6-0.8-1.4-1.1-2.1c-3.1-6.8-6.2-13.7-9.2-20.5c-0.4-0.9-0.7-1.8-0.8-2.7&#10;&#9;c-0.1-1,0.4-1.9,1.4-2.3c1-0.5,2-0.1,2.5,0.7c0.7,1,1.2,2.2,1.8,3.3c1.4,2.7,2.1,5.7,4.1,8c0,0.1,0.4,0,0.4-0.1&#10;&#9;c1-2.9,0.2-5.9,0.4-8.9C1912.6,1191.6,1912.6,1190.9,1912.6,1190.3z"/>
<path fill="#D8CBC0" d="M1331.6,1351c0,1.2-0.4,1.8-1.1,2.3c-0.7,0.5-1.5,0.7-2.2,0.2c-0.9-0.6-1.8-1.3-2.6-2.1&#10;&#9;c-4.2-4.2-8.4-8.4-12.6-12.5c-9.6-9.6-19.2-19.2-28.8-28.8c-0.9-0.9-1.8-1.8-2.6-2.8c-0.7-0.9-0.6-2.3,0.2-3.1&#10;&#9;c0.8-0.8,2.1-1,3.1-0.3c0.8,0.5,1.5,1.2,2.2,1.9c14,14,28,28,42,42C1330.3,1348.8,1331.5,1349.6,1331.6,1351z"/>
<path fill="#2D3130" d="M835.5,1175.6c-0.2,1.9-2.2,2.9-3.6,1.9c-0.7-0.4-1.2-1-1.8-1.6c-11.5-11.5-23-23-34.5-34.5&#10;&#9;c-0.7-0.7-1.3-1.4-1.8-2.2c-0.6-0.9-0.4-1.8,0.3-2.6c0.7-0.8,1.7-1.1,2.6-0.6c0.8,0.4,1.6,1,2.3,1.7c2.4,2.3,4.8,4.7,7.1,7.1&#10;&#9;c8.8,8.8,17.6,17.6,26.4,26.4c0.8,0.8,1.6,1.6,2.3,2.4C835.3,1174.2,835.6,1175,835.5,1175.6z"/>

<path fill="#2D3130" d="M1397.1,1243.8c0.3,0.1,0.9,0.2,1.4,0.6c0.8,0.6,1.4,1.3,2.1,2c11.2,11.2,22.4,22.4,33.6,33.6&#10;&#9;c0.7,0.7,1.4,1.4,1.9,2.1c0.7,0.9,0.5,2.4-0.2,3.1c-0.7,0.7-2.2,0.9-3.1,0.3c-0.8-0.5-1.5-1.2-2.1-1.9&#10;&#9;c-11.3-11.3-22.6-22.6-33.9-33.9c-0.8-0.8-1.6-1.5-2-2.6C1394.3,1245.7,1395.4,1243.9,1397.1,1243.8z"/>
<path fill="#2D3130" d="M706.6,1112.6c0.1,1.6-2,2.8-3.5,2c-0.7-0.4-1.3-0.9-1.9-1.5c-6.9-6.9-13.8-13.8-20.7-20.7&#10;&#9;c-0.4-0.4-0.9-0.9-1.2-1.5c-0.6-0.9-0.5-1.8,0.1-2.7c0.6-0.9,2-1.3,3-0.7c0.7,0.4,1.3,0.9,1.9,1.4c6.9,6.9,13.8,13.8,20.7,20.7&#10;&#9;C705.8,1110.5,706.5,1111.4,706.6,1112.6z"/>

<path fill="#EFE3D8" d="M1672.3,567.3l-52.7-3.3l-28.2-59.6c-9.5-23.2,7.6-48.6,32.6-48.6h46.3c25.1,0,42.1,25.4,32.6,48.6&#10;&#9;L1672.3,567.3z"/>
<path fill="#D3B18F" d="M1576.3,501.3c0,0,15.3-10.7,26-5.3c10.7,5.3,13.9,17.3,13.9,17.3l-0.1,51.6l-31.1-18.3L1576.3,501.3z"/>
<path fill="#D3B18F" d="M1716.2,501.3c0,0-15.3-10.7-26-5.3c-10.7,5.3-13.9,17.3-13.9,17.3l0.1,51.6l31.1-18.3L1716.2,501.3z"/>
<path fill="#2D3130" d="M1587.9,519.1c0-5.3,4.1-9.3,9.5-9.3c5.3,0.1,9.3,4.2,9.2,9.6c-0.1,5.1-4.1,9-9.2,9.1&#10;&#9;C1592,528.5,1587.9,524.5,1587.9,519.1z"/>
<path fill="#2D3130" d="M1613.1,542.6c0-4.5,0-9,0-13.4c0-1.1,0-2.2,0.2-3.3c0.2-1.1,1.1-1.6,2.1-1.6c1,0,2,0.4,2.1,1.5&#10;&#9;c0.2,1.2,0.3,2.5,0.3,3.8c0,7,0,14.1,0,21.1c0,6.2,4.1,10.9,10.2,11.9c5.6,0.9,11.6-2.8,13.5-8.5c0.4-1.2,0.2-1.8-1-2.3&#10;&#9;c-1.6-0.7-3.3-1.3-4.7-2.4c-2.4-1.8-4.2-3.9-5.2-6.7c-0.4-1,0.1-1.9,0.9-2.5c0.8-0.7,2.4-0.5,3.1,0.3c0.4,0.5,0.7,1,1.1,1.6&#10;&#9;c3.9,7,14,7.5,18.5-0.1c0.3-0.5,0.7-1.1,1.1-1.5c0.8-0.7,1.7-0.8,2.7-0.3c1,0.5,1.2,1.4,1.1,2.4c-0.2,1.5-1,2.7-1.9,3.8&#10;&#9;c-1.9,2.5-4.3,4.2-7.3,5.3c-1.9,0.7-2.1,1.5-1.3,3.4c3.1,7.6,13.4,11.3,20.5,3.8c2.2-2.3,3.6-5.1,3.4-8.6&#10;&#9;c-0.2-6.7-0.1-13.4-0.1-20.1c0-1.3,0-2.6,0.1-3.8c0.1-1.1,0.8-1.7,1.9-1.8c1.3-0.1,2.3,0.6,2.5,1.8c0.2,0.9,0.2,1.9,0.2,2.9&#10;&#9;c0,9.1,0.1,18.2-0.1,27.3c-0.1,9.2-3.6,17.1-10.5,23.4c-17.8,16.1-46.9,7.8-52.7-16.4c-0.6-2.5-0.9-5-0.9-7.6&#10;&#9;C1613.1,551.2,1613.1,546.9,1613.1,542.6z"/>
<path fill="#EFE3D8" d="M1645.1,583.1c11-0.5,19.1-5.5,24.3-15.2c0.4-0.7,0.6-1.5,0.8-2.2c0.1-0.2-0.2-0.5-0.4-0.8&#10;&#9;c-0.1-0.1-0.3-0.1-0.4,0c-0.6,0.2-1.2,0.5-1.7,0.7c-7.6,3.8-16,1.4-20.9-4.2c-1.9-2.2-2.1-2.2-4,0.1c-4.1,4.8-12,8-20,4.5&#10;&#9;c-0.6-0.3-1.2-0.5-1.8-0.7c-0.2-0.1-0.7,0-0.8,0.1c-0.2,0.2-0.2,0.6-0.2,0.8c0.1,0.5,0.3,0.9,0.5,1.3&#10;&#9;C1625.8,577.5,1634,582.6,1645.1,583.1z"/>
<path fill="#2D3130" d="M1593.1,491.8c10.8,0,20,6.1,23.8,15.8c0.4,1,0.7,2.1,0.9,3.2c0.2,1.2-0.6,2.3-1.6,2.6&#10;&#9;c-1,0.3-2.2-0.3-2.8-1.4c-0.3-0.7-0.6-1.5-0.8-2.2c-4.2-10.7-15.3-14.6-23.1-12.7c-0.5,0.1-0.9,0.2-1.4,0.3&#10;&#9;c-1.5,0.1-2.6-0.6-2.8-1.9c-0.2-1.2,0.4-2.1,1.6-2.6C1589,491.8,1591.2,491.7,1593.1,491.8z"/>
<path fill="#2D3130" d="M1694.9,509.9c5.4-0.1,9.4,3.9,9.5,9.3c0,5.4-4.1,9.4-9.4,9.4c-5.1,0-9.1-3.9-9.2-9.1&#10;&#9;C1685.6,514.1,1689.6,509.9,1694.9,509.9z"/>
<path fill="#2D3130" d="M1699.1,491.8c2.1-0.1,4.3,0.1,6.4,1c1.2,0.5,1.7,1.6,1.4,2.7c-0.3,1.1-1.3,1.9-2.5,1.8&#10;&#9;c-0.8-0.1-1.6-0.3-2.3-0.4c-9.2-1.4-18,3.2-22,11.7c-0.6,1.3-1,2.7-1.8,3.9c-0.5,0.8-1.5,1.2-2.5,0.9c-1-0.4-1.5-1.1-1.5-2.2&#10;&#9;c0-1.3,0.5-2.5,0.9-3.7C1679.6,496.7,1690.3,491.3,1699.1,491.8z"/>
</svg>